<?xml version="1.0" standalone="no"?>
<!DOCTYPE svg PUBLIC "-//W3C//DTD SVG 20010904//EN"
 "http://www.w3.org/TR/2001/REC-SVG-20010904/DTD/svg10.dtd">
<svg version="1.0" xmlns="http://www.w3.org/2000/svg"
 width="1350.000000pt" height="1350.000000pt" viewBox="0 0 1350.000000 1350.000000"
 preserveAspectRatio="xMidYMid meet">
<metadata>
Created by potrace 1.10, written by Peter Selinger 2001-2011
</metadata>
<g transform="translate(0.000000,1350.000000) scale(0.100000,-0.100000)"
fill="#000000" stroke="none">
<path d="M4427 10003 c-4 -3 -7 -475 -7 -1047 0 -972 1 -1043 18 -1073 16 -29
90 -139 137 -203 11 -15 55 -78 98 -141 43 -63 114 -166 158 -229 44 -63 100
-144 125 -180 25 -36 83 -119 130 -185 46 -66 122 -176 169 -245 47 -69 115
-165 151 -215 35 -49 68 -99 73 -110 5 -11 23 -35 40 -53 30 -32 31 -32 58
-17 16 8 48 31 73 50 25 19 68 50 97 70 29 19 55 40 58 46 4 5 23 21 43 35 21
13 55 38 77 55 22 16 56 41 75 54 19 14 64 48 100 75 36 27 81 61 100 75 136
97 152 115 135 139 -36 53 -132 194 -140 207 -5 10 -51 75 -100 145 -50 71
-107 154 -128 184 -64 96 -126 185 -135 196 -9 10 -51 72 -77 113 -47 74 -66
100 -75 106 -16 10 -12 42 6 49 9 3 197 6 419 6 389 0 405 1 415 19 11 21 15
2036 4 2065 -6 14 -107 16 -1048 16 -574 0 -1046 -3 -1049 -7z"/>
<path d="M7007 10003 c-4 -3 -7 -477 -7 -1053 l0 -1047 50 -76 c27 -42 54 -79
60 -82 6 -4 17 -21 25 -38 8 -18 35 -59 60 -92 62 -83 167 -234 185 -265 8
-14 35 -52 59 -84 24 -32 71 -99 105 -150 34 -50 77 -111 94 -136 18 -25 57
-81 88 -125 30 -44 97 -141 149 -215 52 -74 125 -181 162 -237 37 -56 74 -104
81 -107 7 -3 22 -1 32 4 16 9 152 108 255 188 17 12 46 34 65 47 19 14 51 38
71 53 20 15 62 47 95 72 71 54 140 104 175 128 14 9 44 33 68 53 40 35 41 38
29 65 -14 31 -75 126 -87 134 -7 5 -25 32 -176 254 -44 65 -89 131 -100 146
-38 52 -160 232 -180 265 -19 32 -31 47 -87 122 -24 30 -36 66 -25 75 1 1 191
5 422 8 l420 5 0 1045 0 1045 -1041 3 c-572 1 -1044 -1 -1047 -5z"/>
<path d="M5575 5032 c-78 -18 -132 -70 -162 -154 -16 -46 -18 -86 -18 -308 0
-258 7 -329 43 -430 20 -55 20 -56 160 -268 160 -242 156 -230 157 -544 0
-249 -1 -258 -21 -279 -29 -28 -89 -29 -118 0 -20 21 -21 31 -24 305 -4 326 7
296 -109 296 -100 0 -96 16 -91 -324 5 -310 6 -320 60 -407 40 -67 90 -84 233
-83 96 0 116 3 153 23 97 53 122 140 122 429 0 217 -14 342 -47 432 -21 54
-93 174 -174 290 -135 191 -153 263 -147 591 3 182 4 188 27 213 31 33 89 36
117 5 18 -19 19 -42 22 -302 2 -206 6 -283 15 -289 7 -4 44 -8 84 -8 111 0
105 -20 101 329 -3 252 -7 303 -22 343 -19 52 -75 114 -115 130 -32 12 -205
19 -246 10z"/>
<path d="M8838 5025 c-71 -23 -115 -82 -128 -171 -6 -42 -10 -402 -10 -909 0
-932 3 -975 56 -1038 46 -54 75 -67 167 -74 143 -10 216 18 260 100 l22 42 0
955 c0 525 -3 967 -7 981 -9 31 -60 84 -103 106 -43 23 -197 27 -257 8z m228
-110 c20 -15 38 -41 44 -63 8 -26 10 -313 8 -944 l-3 -907 -29 -30 c-37 -39
-85 -55 -148 -49 -60 6 -96 31 -123 84 -19 38 -20 62 -23 889 -4 941 -3 961
51 1013 39 37 56 42 131 36 43 -3 68 -11 92 -29z"/>
<path d="M6626 5004 c-9 -23 -7 -2127 2 -2140 11 -16 42 -25 63 -19 18 6 19
23 19 329 0 189 4 347 11 381 12 66 82 212 126 264 l29 34 36 -44 c19 -24 55
-84 79 -133 l44 -89 3 -346 c1 -190 4 -356 7 -367 3 -13 16 -24 31 -28 54 -14
54 -13 54 363 0 200 -5 365 -11 391 -13 59 -72 178 -131 264 -27 38 -48 75
-48 82 0 6 20 40 44 75 134 197 146 243 146 562 0 276 -8 324 -64 380 -48 48
-91 57 -274 57 -137 0 -161 -2 -166 -16z m356 -106 c20 -18 41 -48 47 -67 7
-21 11 -124 11 -265 -1 -215 -2 -236 -24 -298 -24 -70 -28 -76 -123 -218 -31
-47 -74 -112 -96 -145 -57 -86 -69 -98 -79 -83 -9 15 -11 1068 -2 1092 5 13
25 16 118 16 l113 0 35 -32z"/>
<path d="M7470 5001 c-5 -11 -10 -41 -10 -66 0 -44 -10 -171 -45 -570 -8 -93
-22 -260 -30 -370 -30 -395 -46 -587 -64 -767 -5 -51 -13 -157 -16 -235 l-7
-142 26 -7 c47 -11 58 8 75 130 12 86 53 173 149 315 109 162 117 161 125 -9
3 -63 9 -128 12 -145 3 -16 9 -83 14 -148 4 -65 13 -123 19 -129 12 -12 59
-14 70 -4 11 11 -6 264 -39 586 -5 52 -18 217 -29 365 -25 335 -47 611 -60
735 -5 52 -15 172 -21 265 -6 94 -15 180 -20 193 -8 20 -15 22 -73 22 -54 0
-67 -3 -76 -19z m90 -376 c6 -39 15 -128 20 -200 5 -71 14 -173 19 -225 6 -52
18 -205 27 -340 l17 -245 -25 -55 c-36 -75 -165 -260 -183 -260 -8 0 -15 3
-15 8 0 4 5 61 10 127 30 356 52 625 60 750 6 77 12 160 15 185 7 61 24 278
25 315 0 50 19 14 30 -60z"/>
<path d="M7990 5001 c-14 -27 -13 -37 6 -55 12 -12 37 -16 109 -16 75 0 94 -3
99 -16 3 -9 6 -474 6 -1034 0 -979 1 -1020 18 -1029 15 -8 48 -6 64 3 2 0 5
467 8 1036 l5 1035 99 5 c108 5 125 15 112 63 l-6 27 -255 0 c-241 0 -255 -1
-265 -19z"/>
<path d="M9400 5001 c-7 -13 -10 -365 -10 -1070 0 -1038 0 -1051 20 -1071 11
-11 26 -20 34 -20 35 0 38 24 37 302 -1 334 9 436 56 533 18 39 39 79 46 90
35 56 51 75 63 75 13 0 64 -49 64 -62 0 -4 13 -26 29 -50 16 -24 38 -74 50
-112 20 -63 21 -91 21 -400 0 -284 2 -335 16 -354 17 -24 43 -29 62 -10 20 20
17 696 -3 772 -18 67 -62 153 -131 250 l-46 67 64 102 c35 56 77 131 93 167
l30 65 3 281 c4 314 0 344 -54 403 -46 52 -89 61 -278 61 -143 0 -156 -1 -166
-19z m331 -85 c22 -9 43 -30 58 -56 23 -41 23 -44 19 -308 l-4 -267 -48 -90
c-27 -49 -68 -119 -93 -155 -24 -36 -65 -97 -91 -137 -50 -76 -77 -95 -85 -59
-10 43 -8 1032 2 1059 10 27 11 27 110 27 62 0 111 -5 132 -14z"/>
<path d="M3503 4995 c-3 -9 0 -64 6 -123 14 -137 39 -445 51 -635 5 -82 12
-163 15 -180 3 -18 10 -90 15 -162 5 -71 16 -211 24 -310 8 -99 20 -238 25
-310 26 -334 34 -411 43 -427 7 -15 23 -18 88 -18 106 0 105 -1 120 215 6 94
13 181 15 195 3 14 9 95 15 180 6 85 15 189 20 230 5 41 17 161 25 265 27 343
45 568 55 675 22 227 33 389 27 404 -5 13 -22 16 -85 16 -52 0 -83 -4 -89 -12
-6 -7 -13 -49 -16 -93 -10 -132 -26 -379 -37 -570 -25 -415 -30 -476 -39 -470
-15 9 -32 152 -41 345 -17 386 -41 755 -50 778 -9 20 -16 22 -95 22 -68 0 -87
-3 -92 -15z"/>
<path d="M4206 4994 c-14 -14 -16 -125 -16 -1070 0 -708 3 -1062 10 -1075 10
-18 23 -19 173 -19 114 0 167 4 175 12 12 12 17 134 6 162 -5 12 -21 16 -66
16 -107 0 -98 -34 -98 398 0 281 3 381 12 390 7 7 36 12 66 12 85 0 92 7 92
100 0 52 -4 81 -12 86 -7 5 -44 11 -83 14 l-70 5 -3 384 c-1 261 1 388 8 395
6 6 43 13 83 16 l72 5 3 78 c2 50 -1 84 -9 93 -18 22 -321 20 -343 -2z"/>
<path d="M4705 4999 c-3 -8 -4 -498 -3 -1089 l3 -1075 90 0 90 0 6 355 c7 373
12 427 51 500 27 52 55 59 74 20 45 -95 44 -83 44 -475 0 -326 2 -376 16 -389
19 -20 153 -23 172 -4 18 18 16 663 -2 783 -13 88 -49 178 -105 260 -12 17
-21 38 -21 47 0 10 19 53 43 95 23 43 50 98 59 123 27 73 40 231 36 460 l-3
215 -30 60 c-23 47 -41 67 -79 90 l-48 29 -194 4 c-157 4 -195 2 -199 -9z
m332 -211 c23 -21 23 -25 23 -257 0 -272 -8 -316 -76 -422 -48 -73 -68 -94
-84 -84 -7 4 -10 131 -10 381 0 367 0 374 21 395 18 18 28 20 62 15 23 -4 52
-17 64 -28z"/>
<path d="M6102 4998 c-17 -17 -17 -2139 0 -2156 14 -14 325 -17 346 -3 9 5 12
31 10 92 l-3 84 -73 6 c-40 3 -77 10 -82 15 -7 7 -9 149 -8 395 l3 384 70 5
c39 3 76 9 83 13 8 6 12 36 12 92 l0 84 -32 6 c-18 3 -55 6 -83 7 l-50 3 -3
384 c-1 261 1 388 8 395 6 6 43 13 83 16 l72 5 3 84 c2 61 -1 87 -10 92 -21
14 -332 11 -346 -3z"/>
</g>
</svg>
